<svg aria-hidden="true" style="position: absolute; width: 0; height: 0; overflow: hidden;" version="1.1" xmlns="http://www.w3.org/2000/svg" xmlns:xlink="http://www.w3.org/1999/xlink">
<defs>
<symbol id="icon-arrow" viewBox="0 0 32 32">
<title>arrow</title>
<path fill="#fff" style="fill: var(--color1, #fff)" opacity="0.5" d="M30.85 8.906c1.452 1.174 1.452 3.080 0 4.254l-12.26 9.928c-0.634 0.514-1.44 0.802-2.27 0.866l-0.356 0.014c-0.95 0-1.9-0.294-2.626-0.88l-12.26-9.928c-1.452-1.176-1.452-3.080 0-4.254 1.45-1.176 3.802-1.176 5.254 0l9.632 7.798 9.632-7.8c1.452-1.174 3.804-1.174 5.254 0z"></path>
</symbol>
<symbol id="icon-comment" viewBox="0 0 32 32">
<title>comment</title>
<path fill="#aaa" style="fill: var(--color2, #aaa)" d="M27.733 2.133c1.57 0 2.844 1.274 2.844 2.844v15.578c0 1.572-1.274 2.846-2.844 2.846l-17.916-0.002-5.291 5.263c-0.241 0.702-0.907 1.205-1.69 1.205h-0.341c-0.986 0-1.786-0.8-1.786-1.783v-23.104c0-1.574 1.274-2.846 2.846-2.846h24.177zM26.682 6.003h-22.074v17.414l3.243-3.87h18.829v-13.545z"></path>
</symbol>
<symbol id="icon-love" viewBox="0 0 32 32">
<title>love</title>
<path fill="#aaa" style="fill: var(--color2, #aaa)" d="M23.923 2.133c4.068 0 7.366 3.388 7.366 7.567 0 1.63-0.503 3.14-1.357 4.375l0.128 0.034-14.11 15.757h-0.612l-14.112-15.757 0.079-0.107c-0.823-1.225-1.306-2.707-1.306-4.305 0-4.177 3.298-7.565 7.366-7.565 1.536 0 2.965 0.484 4.145 1.31l0.145-0.049 3.68 3.782h0.614l3.682-3.785 0.158 0.041c1.18-0.819 2.601-1.299 4.132-1.299zM23.923 5.909c-0.198 0-0.39 0.017-0.578 0.049l-0.032-0.043-0.077 0.062c-1.259 0.243-2.293 1.148-2.746 2.351l-4.54 3.889h-0.612l-4.855-4.533c-0.356-0.585-0.864-1.060-1.466-1.372l-0.427-0.397-0.128 0.166c-0.346-0.111-0.715-0.171-1.097-0.171-2.031 0-3.678 1.692-3.678 3.776 0 1.378 0.717 2.581 1.788 3.243l10.475 11.893 10.005-11.985c0.99-0.676 1.643-1.835 1.643-3.149 0-2.086-1.645-3.778-3.676-3.778z"></path>
</symbol>
<symbol id="icon-more" viewBox="0 0 32 32">
<title>more</title>
<path fill="#aaa" style="fill: var(--color2, #aaa)" d="M16.666 26c1.474 0 2.668 1.194 2.668 2.666v0.668c0 1.472-1.194 2.666-2.668 2.666h-0.666c-1.472 0-2.666-1.194-2.666-2.666v-0.668c0-1.472 1.194-2.666 2.666-2.666h0.666zM16.666 13.332c1.474 0 2.668 1.196 2.668 2.668v0.666c0 1.474-1.194 2.668-2.668 2.668h-0.666c-1.472 0-2.666-1.194-2.666-2.668v-0.666c0-1.472 1.194-2.668 2.666-2.668h0.666zM16.666 0.668c1.474 0 2.668 1.192 2.668 2.664v0.668c0 1.472-1.194 2.666-2.668 2.666h-0.666c-1.472 0-2.666-1.194-2.666-2.666v-0.668c0-1.472 1.194-2.664 2.666-2.664h0.666z"></path>
</symbol>
<symbol id="icon-sun" viewBox="0 0 32 32">
<title>sun</title>
<path fill="#ccc" style="fill: var(--color3, #ccc)" d="M15.815 25.47c1.067 0 1.931 0.865 1.931 1.931v1.931c0 1.067-0.864 1.931-1.931 1.931-1.066 0-1.931-0.864-1.931-1.931v-1.931c0-1.066 0.865-1.931 1.931-1.931zM8.988 22.642c0.755 0.755 0.755 1.977 0 2.732l-1.365 1.365c-0.754 0.754-1.976 0.754-2.731 0-0.754-0.755-0.754-1.977 0-2.731l1.365-1.365c0.755-0.754 1.977-0.754 2.731 0zM25.374 22.642l1.365 1.366c0.755 0.754 0.755 1.976 0 2.731-0.754 0.754-1.976 0.754-2.731 0l-1.365-1.365c-0.755-0.755-0.755-1.977 0-2.732 0.754-0.754 1.976-0.754 2.731 0zM15.815 8.090c4.266 0 7.724 3.459 7.724 7.724 0 4.266-3.458 7.724-7.724 7.724-4.265 0-7.724-3.458-7.724-7.724 0-4.265 3.459-7.724 7.724-7.724zM15.815 11.953c-2.132 0-3.862 1.73-3.862 3.862 0 2.134 1.73 3.862 3.862 3.862 2.134 0 3.862-1.728 3.862-3.862 0-2.132-1.728-3.862-3.862-3.862zM29.332 13.884c1.067 0 1.931 0.865 1.931 1.931 0 1.068-0.864 1.931-1.931 1.931h-1.931c-1.066 0-1.931-0.863-1.931-1.931 0-1.066 0.865-1.931 1.931-1.931h1.931zM4.228 13.884c1.067 0 1.931 0.865 1.931 1.931 0 1.068-0.864 1.931-1.931 1.931h-1.931c-1.066 0-1.931-0.863-1.931-1.931 0-1.066 0.865-1.931 1.931-1.931h1.931zM26.1 4.468c0.233 0.094 0.45 0.235 0.64 0.424 0.188 0.188 0.329 0.406 0.424 0.639 0.282 0.697 0.141 1.527-0.425 2.092l-1.365 1.365c-0.755 0.755-1.977 0.755-2.731 0-0.755-0.754-0.755-1.975 0-2.731l1.365-1.365c0.565-0.566 1.395-0.706 2.092-0.424zM7.623 4.892l1.365 1.365c0.755 0.755 0.755 1.977 0 2.731-0.754 0.755-1.976 0.755-2.731 0l-1.365-1.365c-0.754-0.754-0.754-1.977 0-2.731 0.755-0.755 1.977-0.755 2.731 0zM15.815 0.367c1.067 0 1.931 0.864 1.931 1.931v1.93c0 1.067-0.864 1.931-1.931 1.931-1.066 0-1.931-0.864-1.931-1.931v-1.931c0-1.066 0.865-1.931 1.931-1.931z"></path>
</symbol>
</defs>
</svg>
