<!-- Generated by IcoMoon.io -->
<svg version="1.1" xmlns="http://www.w3.org/2000/svg" width="32" height="32" viewBox="0 0 32 32">
<title>more</title>
<path fill="#aaa" d="M16.666 26c1.474 0 2.668 1.194 2.668 2.666v0.668c0 1.472-1.194 2.666-2.668 2.666h-0.666c-1.472 0-2.666-1.194-2.666-2.666v-0.668c0-1.472 1.194-2.666 2.666-2.666h0.666zM16.666 13.332c1.474 0 2.668 1.196 2.668 2.668v0.666c0 1.474-1.194 2.668-2.668 2.668h-0.666c-1.472 0-2.666-1.194-2.666-2.668v-0.666c0-1.472 1.194-2.668 2.666-2.668h0.666zM16.666 0.668c1.474 0 2.668 1.192 2.668 2.664v0.668c0 1.472-1.194 2.666-2.668 2.666h-0.666c-1.472 0-2.666-1.194-2.666-2.666v-0.668c0-1.472 1.194-2.664 2.666-2.664h0.666z"></path>
</svg>
