<!-- Generated by IcoMoon.io -->
<svg version="1.1" xmlns="http://www.w3.org/2000/svg" width="32" height="32" viewBox="0 0 32 32">
<title>sun</title>
<path fill="#ccc" d="M15.815 25.47c1.067 0 1.931 0.865 1.931 1.931v1.931c0 1.067-0.864 1.931-1.931 1.931-1.066 0-1.931-0.864-1.931-1.931v-1.931c0-1.066 0.865-1.931 1.931-1.931zM8.988 22.642c0.755 0.755 0.755 1.977 0 2.732l-1.365 1.365c-0.754 0.754-1.976 0.754-2.731 0-0.754-0.755-0.754-1.977 0-2.731l1.365-1.365c0.755-0.754 1.977-0.754 2.731 0zM25.374 22.642l1.365 1.366c0.755 0.754 0.755 1.976 0 2.731-0.754 0.754-1.976 0.754-2.731 0l-1.365-1.365c-0.755-0.755-0.755-1.977 0-2.732 0.754-0.754 1.976-0.754 2.731 0zM15.815 8.090c4.266 0 7.724 3.459 7.724 7.724 0 4.266-3.458 7.724-7.724 7.724-4.265 0-7.724-3.458-7.724-7.724 0-4.265 3.459-7.724 7.724-7.724zM15.815 11.953c-2.132 0-3.862 1.73-3.862 3.862 0 2.134 1.73 3.862 3.862 3.862 2.134 0 3.862-1.728 3.862-3.862 0-2.132-1.728-3.862-3.862-3.862zM29.332 13.884c1.067 0 1.931 0.865 1.931 1.931 0 1.068-0.864 1.931-1.931 1.931h-1.931c-1.066 0-1.931-0.863-1.931-1.931 0-1.066 0.865-1.931 1.931-1.931h1.931zM4.228 13.884c1.067 0 1.931 0.865 1.931 1.931 0 1.068-0.864 1.931-1.931 1.931h-1.931c-1.066 0-1.931-0.863-1.931-1.931 0-1.066 0.865-1.931 1.931-1.931h1.931zM26.1 4.468c0.233 0.094 0.45 0.235 0.64 0.424 0.188 0.188 0.329 0.406 0.424 0.639 0.282 0.697 0.141 1.527-0.425 2.092l-1.365 1.365c-0.755 0.755-1.977 0.755-2.731 0-0.755-0.754-0.755-1.975 0-2.731l1.365-1.365c0.565-0.566 1.395-0.706 2.092-0.424zM7.623 4.892l1.365 1.365c0.755 0.755 0.755 1.977 0 2.731-0.754 0.755-1.976 0.755-2.731 0l-1.365-1.365c-0.754-0.754-0.754-1.977 0-2.731 0.755-0.755 1.977-0.755 2.731 0zM15.815 0.367c1.067 0 1.931 0.864 1.931 1.931v1.93c0 1.067-0.864 1.931-1.931 1.931-1.066 0-1.931-0.864-1.931-1.931v-1.931c0-1.066 0.865-1.931 1.931-1.931z"></path>
</svg>
